<svg width="11" height="21" viewBox="0 0 11 21" fill="none" xmlns="http://www.w3.org/2000/svg">
<path d="M10.5128 0.265984C10.5128 0.310287 10.5128 0.398895 10.5128 0.443199C10.5128 1.50649 10.5128 2.56978 10.5128 3.58877C10.5128 3.72168 10.468 3.76598 10.3337 3.76598C9.75191 3.76598 9.17007 3.76598 8.58822 3.76598C7.69308 3.76598 7.37979 4.20902 7.33503 4.60776C7.29027 5.36092 7.29027 6.06978 7.29027 6.82295C7.29027 6.95586 7.37979 6.95586 7.4693 6.95586C8.4092 6.95586 9.34909 6.95586 10.289 6.95586H10.5128C10.3785 8.15206 10.2442 9.30396 10.1547 10.5002H7.33503C7.33503 10.5888 7.33503 10.6331 7.33503 10.7217C7.33503 14.0002 7.33503 17.2786 7.33503 20.5571C7.33503 20.6014 7.33503 20.69 7.33503 20.7343H3.48592C3.48592 20.4242 3.48592 20.1141 3.48592 19.804C3.48592 16.7913 3.48592 13.7786 3.48592 10.7217V10.4559H0.890015C0.890015 10.3673 0.890015 10.3229 0.890015 10.2786C0.890015 9.21535 0.890015 8.15206 0.890015 7.08877C0.890015 6.95586 0.934772 6.91155 1.06904 6.91155C1.78516 6.91155 2.54602 6.91155 3.26214 6.91155C3.44117 6.91155 3.44117 6.86725 3.44117 6.73434C3.44117 5.80396 3.44117 4.82928 3.48592 3.8989C3.48592 1.46219 5.41047 0.22168 7.29027 0.22168H10.5128V0.265984Z" fill="white"/>
</svg>
