<svg width="18" height="18" viewBox="0 0 18 18" fill="none" xmlns="http://www.w3.org/2000/svg">
<path d="M4.12679 17.9997H0.421097V6.06634H4.12679V17.9997ZM2.27195 4.43851C1.08699 4.43851 0.125854 3.45703 0.125854 2.27207C0.125855 1.70289 0.35196 1.15702 0.754431 0.754553C1.1569 0.352082 1.70277 0.125977 2.27195 0.125977C2.84113 0.125977 3.387 0.352082 3.78947 0.754553C4.19194 1.15702 4.41804 1.70289 4.41804 2.27207C4.41804 3.45703 3.45651 4.43851 2.27195 4.43851ZM17.996 17.9997H14.2983V12.1906C14.2983 10.8062 14.2704 9.03074 12.3716 9.03074C10.445 9.03074 10.1497 10.5349 10.1497 12.0909V17.9997H6.44804V6.06634H10.0021V7.69416H10.054C10.5487 6.75657 11.7572 5.76711 13.5602 5.76711C17.3106 5.76711 18 8.23677 18 11.4445V17.9997H17.996Z" fill="white"/>
</svg>
